<mxfile host="Electron" agent="Mozilla/5.0 (Macintosh; Intel Mac OS X 10_15_7) AppleWebKit/537.36 (KHTML, like Gecko) draw.io/25.0.2 Chrome/128.0.6613.186 Electron/32.2.5 Safari/537.36" version="25.0.2">
  <diagram name="Page-1" id="HGpOYKyhBOlc-tTC5dIY">
    <mxGraphModel dx="257" dy="226" grid="1" gridSize="10" guides="1" tooltips="1" connect="1" arrows="1" fold="1" page="1" pageScale="1" pageWidth="850" pageHeight="1100" math="0" shadow="0">
      <root>
        <mxCell id="0" />
        <mxCell id="1" parent="0" />
        <mxCell id="9tGz7WhAxKRfR7eLDc8i-1" value="" style="shape=table;startSize=0;container=1;collapsible=0;childLayout=tableLayout;fillColor=none;" vertex="1" parent="1">
          <mxGeometry x="80" y="80" width="160" height="120" as="geometry" />
        </mxCell>
        <mxCell id="9tGz7WhAxKRfR7eLDc8i-2" value="" style="shape=tableRow;horizontal=0;startSize=0;swimlaneHead=0;swimlaneBody=0;strokeColor=inherit;top=0;left=0;bottom=0;right=0;collapsible=0;dropTarget=0;fillColor=none;points=[[0,0.5],[1,0.5]];portConstraint=eastwest;" vertex="1" parent="9tGz7WhAxKRfR7eLDc8i-1">
          <mxGeometry width="160" height="40" as="geometry" />
        </mxCell>
        <mxCell id="9tGz7WhAxKRfR7eLDc8i-3" value="1" style="shape=partialRectangle;html=1;whiteSpace=wrap;connectable=0;strokeColor=inherit;overflow=hidden;fillColor=none;top=0;left=0;bottom=0;right=0;pointerEvents=1;" vertex="1" parent="9tGz7WhAxKRfR7eLDc8i-2">
          <mxGeometry width="40" height="40" as="geometry">
            <mxRectangle width="40" height="40" as="alternateBounds" />
          </mxGeometry>
        </mxCell>
        <mxCell id="9tGz7WhAxKRfR7eLDc8i-4" value="1" style="shape=partialRectangle;html=1;whiteSpace=wrap;connectable=0;strokeColor=inherit;overflow=hidden;fillColor=none;top=0;left=0;bottom=0;right=0;pointerEvents=1;" vertex="1" parent="9tGz7WhAxKRfR7eLDc8i-2">
          <mxGeometry x="40" width="40" height="40" as="geometry">
            <mxRectangle width="40" height="40" as="alternateBounds" />
          </mxGeometry>
        </mxCell>
        <mxCell id="9tGz7WhAxKRfR7eLDc8i-5" value="0" style="shape=partialRectangle;html=1;whiteSpace=wrap;connectable=0;strokeColor=inherit;overflow=hidden;fillColor=none;top=0;left=0;bottom=0;right=0;pointerEvents=1;" vertex="1" parent="9tGz7WhAxKRfR7eLDc8i-2">
          <mxGeometry x="80" width="40" height="40" as="geometry">
            <mxRectangle width="40" height="40" as="alternateBounds" />
          </mxGeometry>
        </mxCell>
        <mxCell id="9tGz7WhAxKRfR7eLDc8i-6" value="2" style="shape=partialRectangle;html=1;whiteSpace=wrap;connectable=0;strokeColor=inherit;overflow=hidden;fillColor=none;top=0;left=0;bottom=0;right=0;pointerEvents=1;" vertex="1" parent="9tGz7WhAxKRfR7eLDc8i-2">
          <mxGeometry x="120" width="40" height="40" as="geometry">
            <mxRectangle width="40" height="40" as="alternateBounds" />
          </mxGeometry>
        </mxCell>
        <mxCell id="9tGz7WhAxKRfR7eLDc8i-7" value="" style="shape=tableRow;horizontal=0;startSize=0;swimlaneHead=0;swimlaneBody=0;strokeColor=inherit;top=0;left=0;bottom=0;right=0;collapsible=0;dropTarget=0;fillColor=none;points=[[0,0.5],[1,0.5]];portConstraint=eastwest;" vertex="1" parent="9tGz7WhAxKRfR7eLDc8i-1">
          <mxGeometry y="40" width="160" height="40" as="geometry" />
        </mxCell>
        <mxCell id="9tGz7WhAxKRfR7eLDc8i-8" value="1" style="shape=partialRectangle;html=1;whiteSpace=wrap;connectable=0;strokeColor=inherit;overflow=hidden;fillColor=none;top=0;left=0;bottom=0;right=0;pointerEvents=1;" vertex="1" parent="9tGz7WhAxKRfR7eLDc8i-7">
          <mxGeometry width="40" height="40" as="geometry">
            <mxRectangle width="40" height="40" as="alternateBounds" />
          </mxGeometry>
        </mxCell>
        <mxCell id="9tGz7WhAxKRfR7eLDc8i-9" value="1" style="shape=partialRectangle;html=1;whiteSpace=wrap;connectable=0;strokeColor=inherit;overflow=hidden;fillColor=none;top=0;left=0;bottom=0;right=0;pointerEvents=1;" vertex="1" parent="9tGz7WhAxKRfR7eLDc8i-7">
          <mxGeometry x="40" width="40" height="40" as="geometry">
            <mxRectangle width="40" height="40" as="alternateBounds" />
          </mxGeometry>
        </mxCell>
        <mxCell id="9tGz7WhAxKRfR7eLDc8i-10" value="1" style="shape=partialRectangle;html=1;whiteSpace=wrap;connectable=0;strokeColor=inherit;overflow=hidden;fillColor=none;top=0;left=0;bottom=0;right=0;pointerEvents=1;" vertex="1" parent="9tGz7WhAxKRfR7eLDc8i-7">
          <mxGeometry x="80" width="40" height="40" as="geometry">
            <mxRectangle width="40" height="40" as="alternateBounds" />
          </mxGeometry>
        </mxCell>
        <mxCell id="9tGz7WhAxKRfR7eLDc8i-11" value="1" style="shape=partialRectangle;html=1;whiteSpace=wrap;connectable=0;strokeColor=inherit;overflow=hidden;fillColor=none;top=0;left=0;bottom=0;right=0;pointerEvents=1;" vertex="1" parent="9tGz7WhAxKRfR7eLDc8i-7">
          <mxGeometry x="120" width="40" height="40" as="geometry">
            <mxRectangle width="40" height="40" as="alternateBounds" />
          </mxGeometry>
        </mxCell>
        <mxCell id="9tGz7WhAxKRfR7eLDc8i-12" value="" style="shape=tableRow;horizontal=0;startSize=0;swimlaneHead=0;swimlaneBody=0;strokeColor=inherit;top=0;left=0;bottom=0;right=0;collapsible=0;dropTarget=0;fillColor=none;points=[[0,0.5],[1,0.5]];portConstraint=eastwest;" vertex="1" parent="9tGz7WhAxKRfR7eLDc8i-1">
          <mxGeometry y="80" width="160" height="40" as="geometry" />
        </mxCell>
        <mxCell id="9tGz7WhAxKRfR7eLDc8i-13" value="1" style="shape=partialRectangle;html=1;whiteSpace=wrap;connectable=0;strokeColor=inherit;overflow=hidden;fillColor=none;top=0;left=0;bottom=0;right=0;pointerEvents=1;" vertex="1" parent="9tGz7WhAxKRfR7eLDc8i-12">
          <mxGeometry width="40" height="40" as="geometry">
            <mxRectangle width="40" height="40" as="alternateBounds" />
          </mxGeometry>
        </mxCell>
        <mxCell id="9tGz7WhAxKRfR7eLDc8i-14" value="1" style="shape=partialRectangle;html=1;whiteSpace=wrap;connectable=0;strokeColor=inherit;overflow=hidden;fillColor=none;top=0;left=0;bottom=0;right=0;pointerEvents=1;" vertex="1" parent="9tGz7WhAxKRfR7eLDc8i-12">
          <mxGeometry x="40" width="40" height="40" as="geometry">
            <mxRectangle width="40" height="40" as="alternateBounds" />
          </mxGeometry>
        </mxCell>
        <mxCell id="9tGz7WhAxKRfR7eLDc8i-15" value="0" style="shape=partialRectangle;html=1;whiteSpace=wrap;connectable=0;strokeColor=inherit;overflow=hidden;fillColor=none;top=0;left=0;bottom=0;right=0;pointerEvents=1;" vertex="1" parent="9tGz7WhAxKRfR7eLDc8i-12">
          <mxGeometry x="80" width="40" height="40" as="geometry">
            <mxRectangle width="40" height="40" as="alternateBounds" />
          </mxGeometry>
        </mxCell>
        <mxCell id="9tGz7WhAxKRfR7eLDc8i-16" value="2" style="shape=partialRectangle;html=1;whiteSpace=wrap;connectable=0;strokeColor=inherit;overflow=hidden;fillColor=none;top=0;left=0;bottom=0;right=0;pointerEvents=1;" vertex="1" parent="9tGz7WhAxKRfR7eLDc8i-12">
          <mxGeometry x="120" width="40" height="40" as="geometry">
            <mxRectangle width="40" height="40" as="alternateBounds" />
          </mxGeometry>
        </mxCell>
        <mxCell id="9tGz7WhAxKRfR7eLDc8i-17" value="" style="shape=table;startSize=0;container=1;collapsible=0;childLayout=tableLayout;fillColor=none;strokeColor=none;" vertex="1" parent="1">
          <mxGeometry x="80" y="60" width="160" height="20" as="geometry" />
        </mxCell>
        <mxCell id="9tGz7WhAxKRfR7eLDc8i-18" value="" style="shape=tableRow;horizontal=0;startSize=0;swimlaneHead=0;swimlaneBody=0;strokeColor=inherit;top=0;left=0;bottom=0;right=0;collapsible=0;dropTarget=0;fillColor=none;points=[[0,0.5],[1,0.5]];portConstraint=eastwest;" vertex="1" parent="9tGz7WhAxKRfR7eLDc8i-17">
          <mxGeometry width="160" height="20" as="geometry" />
        </mxCell>
        <mxCell id="9tGz7WhAxKRfR7eLDc8i-19" value="0" style="shape=partialRectangle;html=1;whiteSpace=wrap;connectable=0;strokeColor=inherit;overflow=hidden;fillColor=none;top=0;left=0;bottom=0;right=0;pointerEvents=1;" vertex="1" parent="9tGz7WhAxKRfR7eLDc8i-18">
          <mxGeometry width="40" height="20" as="geometry">
            <mxRectangle width="40" height="20" as="alternateBounds" />
          </mxGeometry>
        </mxCell>
        <mxCell id="9tGz7WhAxKRfR7eLDc8i-20" value="1" style="shape=partialRectangle;html=1;whiteSpace=wrap;connectable=0;strokeColor=inherit;overflow=hidden;fillColor=none;top=0;left=0;bottom=0;right=0;pointerEvents=1;" vertex="1" parent="9tGz7WhAxKRfR7eLDc8i-18">
          <mxGeometry x="40" width="40" height="20" as="geometry">
            <mxRectangle width="40" height="20" as="alternateBounds" />
          </mxGeometry>
        </mxCell>
        <mxCell id="9tGz7WhAxKRfR7eLDc8i-21" value="2" style="shape=partialRectangle;html=1;whiteSpace=wrap;connectable=0;strokeColor=inherit;overflow=hidden;fillColor=none;top=0;left=0;bottom=0;right=0;pointerEvents=1;" vertex="1" parent="9tGz7WhAxKRfR7eLDc8i-18">
          <mxGeometry x="80" width="40" height="20" as="geometry">
            <mxRectangle width="40" height="20" as="alternateBounds" />
          </mxGeometry>
        </mxCell>
        <mxCell id="9tGz7WhAxKRfR7eLDc8i-22" value="3" style="shape=partialRectangle;html=1;whiteSpace=wrap;connectable=0;strokeColor=inherit;overflow=hidden;fillColor=none;top=0;left=0;bottom=0;right=0;pointerEvents=1;" vertex="1" parent="9tGz7WhAxKRfR7eLDc8i-18">
          <mxGeometry x="120" width="40" height="20" as="geometry">
            <mxRectangle width="40" height="20" as="alternateBounds" />
          </mxGeometry>
        </mxCell>
        <mxCell id="9tGz7WhAxKRfR7eLDc8i-23" value="" style="shape=table;startSize=0;container=1;collapsible=0;childLayout=tableLayout;fillColor=none;strokeColor=none;" vertex="1" parent="1">
          <mxGeometry x="60" y="80" width="20" height="120" as="geometry" />
        </mxCell>
        <mxCell id="9tGz7WhAxKRfR7eLDc8i-24" value="" style="shape=tableRow;horizontal=0;startSize=0;swimlaneHead=0;swimlaneBody=0;strokeColor=inherit;top=0;left=0;bottom=0;right=0;collapsible=0;dropTarget=0;fillColor=none;points=[[0,0.5],[1,0.5]];portConstraint=eastwest;" vertex="1" parent="9tGz7WhAxKRfR7eLDc8i-23">
          <mxGeometry width="20" height="40" as="geometry" />
        </mxCell>
        <mxCell id="9tGz7WhAxKRfR7eLDc8i-25" value="0" style="shape=partialRectangle;html=1;whiteSpace=wrap;connectable=0;strokeColor=inherit;overflow=hidden;fillColor=none;top=0;left=0;bottom=0;right=0;pointerEvents=1;" vertex="1" parent="9tGz7WhAxKRfR7eLDc8i-24">
          <mxGeometry width="20" height="40" as="geometry">
            <mxRectangle width="20" height="40" as="alternateBounds" />
          </mxGeometry>
        </mxCell>
        <mxCell id="9tGz7WhAxKRfR7eLDc8i-26" value="" style="shape=tableRow;horizontal=0;startSize=0;swimlaneHead=0;swimlaneBody=0;strokeColor=inherit;top=0;left=0;bottom=0;right=0;collapsible=0;dropTarget=0;fillColor=none;points=[[0,0.5],[1,0.5]];portConstraint=eastwest;" vertex="1" parent="9tGz7WhAxKRfR7eLDc8i-23">
          <mxGeometry y="40" width="20" height="40" as="geometry" />
        </mxCell>
        <mxCell id="9tGz7WhAxKRfR7eLDc8i-27" value="1" style="shape=partialRectangle;html=1;whiteSpace=wrap;connectable=0;strokeColor=inherit;overflow=hidden;fillColor=none;top=0;left=0;bottom=0;right=0;pointerEvents=1;" vertex="1" parent="9tGz7WhAxKRfR7eLDc8i-26">
          <mxGeometry width="20" height="40" as="geometry">
            <mxRectangle width="20" height="40" as="alternateBounds" />
          </mxGeometry>
        </mxCell>
        <mxCell id="9tGz7WhAxKRfR7eLDc8i-28" value="" style="shape=tableRow;horizontal=0;startSize=0;swimlaneHead=0;swimlaneBody=0;strokeColor=inherit;top=0;left=0;bottom=0;right=0;collapsible=0;dropTarget=0;fillColor=none;points=[[0,0.5],[1,0.5]];portConstraint=eastwest;" vertex="1" parent="9tGz7WhAxKRfR7eLDc8i-23">
          <mxGeometry y="80" width="20" height="40" as="geometry" />
        </mxCell>
        <mxCell id="9tGz7WhAxKRfR7eLDc8i-29" value="2" style="shape=partialRectangle;html=1;whiteSpace=wrap;connectable=0;strokeColor=inherit;overflow=hidden;fillColor=none;top=0;left=0;bottom=0;right=0;pointerEvents=1;" vertex="1" parent="9tGz7WhAxKRfR7eLDc8i-28">
          <mxGeometry width="20" height="40" as="geometry">
            <mxRectangle width="20" height="40" as="alternateBounds" />
          </mxGeometry>
        </mxCell>
        <mxCell id="9tGz7WhAxKRfR7eLDc8i-38" value="i \ j" style="text;html=1;align=center;verticalAlign=middle;whiteSpace=wrap;rounded=0;" vertex="1" parent="1">
          <mxGeometry x="60" y="60" width="30" height="20" as="geometry" />
        </mxCell>
        <mxCell id="9tGz7WhAxKRfR7eLDc8i-39" value="" style="rounded=1;whiteSpace=wrap;html=1;fillColor=none;strokeColor=#ef4444;strokeWidth=3;" vertex="1" parent="1">
          <mxGeometry x="85" y="85" width="70" height="30" as="geometry" />
        </mxCell>
        <mxCell id="9tGz7WhAxKRfR7eLDc8i-40" value="" style="rounded=1;whiteSpace=wrap;html=1;fillColor=none;strokeColor=#ef4444;strokeWidth=3;" vertex="1" parent="1">
          <mxGeometry x="125" y="125" width="70" height="30" as="geometry" />
        </mxCell>
        <mxCell id="9tGz7WhAxKRfR7eLDc8i-41" value="" style="rounded=1;whiteSpace=wrap;html=1;fillColor=none;strokeColor=#ef4444;strokeWidth=3;" vertex="1" parent="1">
          <mxGeometry x="165" y="165" width="70" height="30" as="geometry" />
        </mxCell>
        <mxCell id="9tGz7WhAxKRfR7eLDc8i-58" value="" style="shape=table;startSize=0;container=1;collapsible=0;childLayout=tableLayout;fillColor=none;" vertex="1" parent="1">
          <mxGeometry x="300" y="80" width="80" height="120" as="geometry" />
        </mxCell>
        <mxCell id="9tGz7WhAxKRfR7eLDc8i-59" value="" style="shape=tableRow;horizontal=0;startSize=0;swimlaneHead=0;swimlaneBody=0;strokeColor=inherit;top=0;left=0;bottom=0;right=0;collapsible=0;dropTarget=0;fillColor=none;points=[[0,0.5],[1,0.5]];portConstraint=eastwest;" vertex="1" parent="9tGz7WhAxKRfR7eLDc8i-58">
          <mxGeometry width="80" height="40" as="geometry" />
        </mxCell>
        <mxCell id="9tGz7WhAxKRfR7eLDc8i-60" value="1" style="shape=partialRectangle;html=1;whiteSpace=wrap;connectable=0;strokeColor=inherit;overflow=hidden;fillColor=none;top=0;left=0;bottom=0;right=0;pointerEvents=1;" vertex="1" parent="9tGz7WhAxKRfR7eLDc8i-59">
          <mxGeometry width="40" height="40" as="geometry">
            <mxRectangle width="40" height="40" as="alternateBounds" />
          </mxGeometry>
        </mxCell>
        <mxCell id="9tGz7WhAxKRfR7eLDc8i-61" value="1" style="shape=partialRectangle;html=1;whiteSpace=wrap;connectable=0;strokeColor=inherit;overflow=hidden;fillColor=none;top=0;left=0;bottom=0;right=0;pointerEvents=1;" vertex="1" parent="9tGz7WhAxKRfR7eLDc8i-59">
          <mxGeometry x="40" width="40" height="40" as="geometry">
            <mxRectangle width="40" height="40" as="alternateBounds" />
          </mxGeometry>
        </mxCell>
        <mxCell id="9tGz7WhAxKRfR7eLDc8i-64" value="" style="shape=tableRow;horizontal=0;startSize=0;swimlaneHead=0;swimlaneBody=0;strokeColor=inherit;top=0;left=0;bottom=0;right=0;collapsible=0;dropTarget=0;fillColor=none;points=[[0,0.5],[1,0.5]];portConstraint=eastwest;" vertex="1" parent="9tGz7WhAxKRfR7eLDc8i-58">
          <mxGeometry y="40" width="80" height="40" as="geometry" />
        </mxCell>
        <mxCell id="9tGz7WhAxKRfR7eLDc8i-65" value="1" style="shape=partialRectangle;html=1;whiteSpace=wrap;connectable=0;strokeColor=inherit;overflow=hidden;fillColor=none;top=0;left=0;bottom=0;right=0;pointerEvents=1;" vertex="1" parent="9tGz7WhAxKRfR7eLDc8i-64">
          <mxGeometry width="40" height="40" as="geometry">
            <mxRectangle width="40" height="40" as="alternateBounds" />
          </mxGeometry>
        </mxCell>
        <mxCell id="9tGz7WhAxKRfR7eLDc8i-66" value="1" style="shape=partialRectangle;html=1;whiteSpace=wrap;connectable=0;strokeColor=inherit;overflow=hidden;fillColor=none;top=0;left=0;bottom=0;right=0;pointerEvents=1;" vertex="1" parent="9tGz7WhAxKRfR7eLDc8i-64">
          <mxGeometry x="40" width="40" height="40" as="geometry">
            <mxRectangle width="40" height="40" as="alternateBounds" />
          </mxGeometry>
        </mxCell>
        <mxCell id="9tGz7WhAxKRfR7eLDc8i-69" value="" style="shape=tableRow;horizontal=0;startSize=0;swimlaneHead=0;swimlaneBody=0;strokeColor=inherit;top=0;left=0;bottom=0;right=0;collapsible=0;dropTarget=0;fillColor=none;points=[[0,0.5],[1,0.5]];portConstraint=eastwest;" vertex="1" parent="9tGz7WhAxKRfR7eLDc8i-58">
          <mxGeometry y="80" width="80" height="40" as="geometry" />
        </mxCell>
        <mxCell id="9tGz7WhAxKRfR7eLDc8i-70" value="0" style="shape=partialRectangle;html=1;whiteSpace=wrap;connectable=0;strokeColor=inherit;overflow=hidden;fillColor=none;top=0;left=0;bottom=0;right=0;pointerEvents=1;" vertex="1" parent="9tGz7WhAxKRfR7eLDc8i-69">
          <mxGeometry width="40" height="40" as="geometry">
            <mxRectangle width="40" height="40" as="alternateBounds" />
          </mxGeometry>
        </mxCell>
        <mxCell id="9tGz7WhAxKRfR7eLDc8i-71" value="2" style="shape=partialRectangle;html=1;whiteSpace=wrap;connectable=0;strokeColor=inherit;overflow=hidden;fillColor=none;top=0;left=0;bottom=0;right=0;pointerEvents=1;" vertex="1" parent="9tGz7WhAxKRfR7eLDc8i-69">
          <mxGeometry x="40" width="40" height="40" as="geometry">
            <mxRectangle width="40" height="40" as="alternateBounds" />
          </mxGeometry>
        </mxCell>
        <mxCell id="9tGz7WhAxKRfR7eLDc8i-74" value="" style="rounded=1;whiteSpace=wrap;html=1;fillColor=none;strokeColor=#ef4444;strokeWidth=3;" vertex="1" parent="1">
          <mxGeometry x="305" y="85" width="70" height="30" as="geometry" />
        </mxCell>
        <mxCell id="9tGz7WhAxKRfR7eLDc8i-75" value="" style="rounded=1;whiteSpace=wrap;html=1;fillColor=none;strokeColor=#ef4444;strokeWidth=3;" vertex="1" parent="1">
          <mxGeometry x="305" y="125" width="70" height="30" as="geometry" />
        </mxCell>
        <mxCell id="9tGz7WhAxKRfR7eLDc8i-76" value="" style="rounded=1;whiteSpace=wrap;html=1;fillColor=none;strokeColor=#ef4444;strokeWidth=3;" vertex="1" parent="1">
          <mxGeometry x="305" y="165" width="70" height="30" as="geometry" />
        </mxCell>
        <mxCell id="9tGz7WhAxKRfR7eLDc8i-77" value="" style="shape=flexArrow;endArrow=classic;html=1;rounded=0;" edge="1" parent="1">
          <mxGeometry width="50" height="50" relative="1" as="geometry">
            <mxPoint x="250" y="139.70999999999998" as="sourcePoint" />
            <mxPoint x="290" y="139.70999999999998" as="targetPoint" />
          </mxGeometry>
        </mxCell>
        <mxCell id="9tGz7WhAxKRfR7eLDc8i-78" value="i \ j&#39;" style="text;html=1;align=center;verticalAlign=middle;whiteSpace=wrap;rounded=0;" vertex="1" parent="1">
          <mxGeometry x="280" y="60" width="30" height="20" as="geometry" />
        </mxCell>
        <mxCell id="9tGz7WhAxKRfR7eLDc8i-79" value="" style="shape=table;startSize=0;container=1;collapsible=0;childLayout=tableLayout;fillColor=none;strokeColor=none;" vertex="1" parent="1">
          <mxGeometry x="300" y="60" width="80" height="20" as="geometry" />
        </mxCell>
        <mxCell id="9tGz7WhAxKRfR7eLDc8i-80" value="" style="shape=tableRow;horizontal=0;startSize=0;swimlaneHead=0;swimlaneBody=0;strokeColor=inherit;top=0;left=0;bottom=0;right=0;collapsible=0;dropTarget=0;fillColor=none;points=[[0,0.5],[1,0.5]];portConstraint=eastwest;" vertex="1" parent="9tGz7WhAxKRfR7eLDc8i-79">
          <mxGeometry width="80" height="20" as="geometry" />
        </mxCell>
        <mxCell id="9tGz7WhAxKRfR7eLDc8i-81" value="0" style="shape=partialRectangle;html=1;whiteSpace=wrap;connectable=0;strokeColor=inherit;overflow=hidden;fillColor=none;top=0;left=0;bottom=0;right=0;pointerEvents=1;" vertex="1" parent="9tGz7WhAxKRfR7eLDc8i-80">
          <mxGeometry width="40" height="20" as="geometry">
            <mxRectangle width="40" height="20" as="alternateBounds" />
          </mxGeometry>
        </mxCell>
        <mxCell id="9tGz7WhAxKRfR7eLDc8i-82" value="1" style="shape=partialRectangle;html=1;whiteSpace=wrap;connectable=0;strokeColor=inherit;overflow=hidden;fillColor=none;top=0;left=0;bottom=0;right=0;pointerEvents=1;" vertex="1" parent="9tGz7WhAxKRfR7eLDc8i-80">
          <mxGeometry x="40" width="40" height="20" as="geometry">
            <mxRectangle width="40" height="20" as="alternateBounds" />
          </mxGeometry>
        </mxCell>
        <mxCell id="9tGz7WhAxKRfR7eLDc8i-85" value="" style="shape=table;startSize=0;container=1;collapsible=0;childLayout=tableLayout;fillColor=none;strokeColor=none;" vertex="1" parent="1">
          <mxGeometry x="40" y="80" width="20" height="120" as="geometry" />
        </mxCell>
        <mxCell id="9tGz7WhAxKRfR7eLDc8i-86" value="" style="shape=tableRow;horizontal=0;startSize=0;swimlaneHead=0;swimlaneBody=0;strokeColor=inherit;top=0;left=0;bottom=0;right=0;collapsible=0;dropTarget=0;fillColor=none;points=[[0,0.5],[1,0.5]];portConstraint=eastwest;" vertex="1" parent="9tGz7WhAxKRfR7eLDc8i-85">
          <mxGeometry width="20" height="40" as="geometry" />
        </mxCell>
        <mxCell id="9tGz7WhAxKRfR7eLDc8i-87" value="a" style="shape=partialRectangle;html=1;whiteSpace=wrap;connectable=0;strokeColor=inherit;overflow=hidden;fillColor=none;top=0;left=0;bottom=0;right=0;pointerEvents=1;" vertex="1" parent="9tGz7WhAxKRfR7eLDc8i-86">
          <mxGeometry width="20" height="40" as="geometry">
            <mxRectangle width="20" height="40" as="alternateBounds" />
          </mxGeometry>
        </mxCell>
        <mxCell id="9tGz7WhAxKRfR7eLDc8i-88" value="" style="shape=tableRow;horizontal=0;startSize=0;swimlaneHead=0;swimlaneBody=0;strokeColor=inherit;top=0;left=0;bottom=0;right=0;collapsible=0;dropTarget=0;fillColor=none;points=[[0,0.5],[1,0.5]];portConstraint=eastwest;" vertex="1" parent="9tGz7WhAxKRfR7eLDc8i-85">
          <mxGeometry y="40" width="20" height="40" as="geometry" />
        </mxCell>
        <mxCell id="9tGz7WhAxKRfR7eLDc8i-89" value="b" style="shape=partialRectangle;html=1;whiteSpace=wrap;connectable=0;strokeColor=inherit;overflow=hidden;fillColor=none;top=0;left=0;bottom=0;right=0;pointerEvents=1;" vertex="1" parent="9tGz7WhAxKRfR7eLDc8i-88">
          <mxGeometry width="20" height="40" as="geometry">
            <mxRectangle width="20" height="40" as="alternateBounds" />
          </mxGeometry>
        </mxCell>
        <mxCell id="9tGz7WhAxKRfR7eLDc8i-90" value="" style="shape=tableRow;horizontal=0;startSize=0;swimlaneHead=0;swimlaneBody=0;strokeColor=inherit;top=0;left=0;bottom=0;right=0;collapsible=0;dropTarget=0;fillColor=none;points=[[0,0.5],[1,0.5]];portConstraint=eastwest;" vertex="1" parent="9tGz7WhAxKRfR7eLDc8i-85">
          <mxGeometry y="80" width="20" height="40" as="geometry" />
        </mxCell>
        <mxCell id="9tGz7WhAxKRfR7eLDc8i-91" value="a" style="shape=partialRectangle;html=1;whiteSpace=wrap;connectable=0;strokeColor=inherit;overflow=hidden;fillColor=none;top=0;left=0;bottom=0;right=0;pointerEvents=1;" vertex="1" parent="9tGz7WhAxKRfR7eLDc8i-90">
          <mxGeometry width="20" height="40" as="geometry">
            <mxRectangle width="20" height="40" as="alternateBounds" />
          </mxGeometry>
        </mxCell>
      </root>
    </mxGraphModel>
  </diagram>
</mxfile>
